# xmcd CD database file
#
# Track frame offsets:
#       182
#       15292
#       27367
#       36447
#       43042
#       51945
#       68037
#       76962
#       86690
#       100107
#       106435
#       113510
#       124592
#       135817
#       143980
#       148807
#       154132
#       169417
#       178655
#       191147
#       196460
#       208967
#       214917
#       218805
#       231185
#
# Disc length: 3145 seconds
#
# Revision: 3
# Processed by: cddbd v1.5.2PL0 Copyright (c) Steve Scherf et al.
# Submitted via: CDDBEditor PBVER-PBREV
#
DISCID=6e0c4719
DTITLE=N. Harnoncourt - Bach: Magnificat- Handel: Utrecht Te Deum
DYEAR=1984
DGENRE=Baroque
TTITLE0=Johann Sebastian Bach (1685-1750) - Magnificat BWV 243 - Magnificat
TTITLE1=Johann Sebastian Bach (1685-1750) - Magnificat BWV 243 - Et exsultavit
TTITLE2=Johann Sebastian Bach (1685-1750) - Magnificat BWV 243 - Quia respexit humilitatem
TTITLE3=Johann Sebastian Bach (1685-1750) - Magnificat BWV 243 - Omnes generationes
TTITLE4=Johann Sebastian Bach (1685-1750) - Magnificat BWV 243 - Quia fecit mihi magna
TTITLE5=Johann Sebastian Bach (1685-1750) - Magnificat BWV 243 - Et misericordia
TTITLE6=Johann Sebastian Bach (1685-1750) - Magnificat BWV 243 - Fecit potentiam
TTITLE7=Johann Sebastian Bach (1685-1750) - Magnificat BWV 243 - Deposuit potentes
TTITLE8=Johann Sebastian Bach (1685-1750) - Magnificat BWV 243 - Esurientes implevit bonis
TTITLE9=Johann Sebastian Bach (1685-1750) - Magnificat BWV 243 - Suscepit Israel
TTITLE10=Johann Sebastian Bach (1685-1750) - Magnificat BWV 243 - Sicut locutus est
TTITLE11=Johann Sebastian Bach (1685-1750) - Magnificat BWV 243 - Gloria Patri
TTITLE12=Georg Friedrich Haendel (1685-1759) - Utrechter Te Deum HWV 278 - We praise Thee, O God
TTITLE13=Georg Friedrich Haendel (1685-1759) - Utrechter Te Deum HWV 278 - All the earth doth worship Thee
TTITLE14=Georg Friedrich Haendel (1685-1759) - Utrechter Te Deum HWV 278 - To Thee all angels cry aloud
TTITLE15=Georg Friedrich Haendel (1685-1759) - Utrechter Te Deum HWV 278 - To Thee Cherubim and Seraphim
TTITLE16=Georg Friedrich Haendel (1685-1759) - Utrechter Te Deum HWV 278 - The glorious company
TTITLE17=Georg Friedrich Haendel (1685-1759) - Utrechter Te Deum HWV 278 - Thou art the King of Glory
TTITLE18=Georg Friedrich Haendel (1685-1759) - Utrechter Te Deum HWV 278 - When Thou took'st upon Thee
TTITLE19=Georg Friedrich Haendel (1685-1759) - Utrechter Te Deum HWV 278 - Thous sittest at the right hand of God
TTITLE20=Georg Friedrich Haendel (1685-1759) - Utrechter Te Deum HWV 278 - We believe that Thou shalt overcome
TTITLE21=Georg Friedrich Haendel (1685-1759) - Utrechter Te Deum HWV 278 - Day by day we magnify Thee
TTITLE22=Georg Friedrich Haendel (1685-1759) - Utrechter Te Deum HWV 278 - And we worship Thy name
TTITLE23=Georg Friedrich Haendel (1685-1759) - Utrechter Te Deum HWV 278 - Vouchsafe O Lord
TTITLE24=Georg Friedrich Haendel (1685-1759) - Utrechter Te Deum HWV 278 - O Lord, in Thee  have I trusted
EXTD=
EXTT0=
EXTT1=
EXTT2=
EXTT3=
EXTT4=
EXTT5=
EXTT6=
EXTT7=
EXTT8=
EXTT9=
EXTT10=
EXTT11=
EXTT12=
EXTT13=
EXTT14=
EXTT15=
EXTT16=
EXTT17=
EXTT18=
EXTT19=
EXTT20=
EXTT21=
EXTT22=
EXTT23=
EXTT24=
PLAYORDER=
